<svg width="136" height="53" fill="none" xmlns="http://www.w3.org/2000/svg"><mask id="a" style="mask-type:luminance" maskUnits="userSpaceOnUse" x="-243" y="-245" width="701" height="397"><path d="M457.025-244.46h-699.622v396.259h699.622V-244.46z" fill="#fff"/></mask><g mask="url(#a)"><path d="M50.807 5.366v.917h-1.093c.073.734.183 1.835.401 3.266.219 1.43.474 2.935.765 4.513.292 1.578.583 2.862.875 3.89.291 1.026.51 1.503.729 1.503.072 0 .182-.036.291-.146.11-.074.328-.147.62-.147.182 0 .328.073.4.22.11.147.146.33.146.514 0 .146-.073.44-.255.917-.182.477-.291.99-.4 1.578-.11.734-.183 1.21-.256 1.43-.073.22-.218.367-.473.367-.22 0-.365-.073-.438-.256a1.762 1.762 0 01-.145-.66c-.183-1.248-.547-2.055-1.094-2.386-.583-.33-1.311-.477-2.186-.477h-1.968c-.947 0-1.64.074-2.113.22-.474.147-.802.367-1.02.698-.219.33-.401.807-.547 1.504-.11.514-.219.88-.328 1.1-.073.22-.255.33-.474.33-.218 0-.328-.072-.4-.256-.073-.183-.11-.44-.146-.734-.11-1.064-.328-1.908-.583-2.568-.146-.367-.182-.624-.182-.807 0-.22.072-.367.255-.477a.833.833 0 01.51-.147c.11 0 .218 0 .364.037.146.036.255.036.328.036.292 0 .437-.11.51-.367.073-.256.146-.66.183-1.21.109-.88.291-1.798.546-2.679.255-.88.583-1.724.911-2.495.328-.77.692-1.504 1.057-2.201a15.53 15.53 0 00.765-1.651 4.05 4.05 0 00.291-1.468c0-.624-.364-.954-1.13-.954h-1.056v-.917h6.34v-.037zm-5.065 14.126h3.353c-.11-.404-.182-.697-.219-.917-.036-.22-.11-.44-.182-.697a84.931 84.931 0 01-1.421-6.898c-.037-.33-.11-.697-.182-1.174a12.554 12.554 0 00-1.203 2.091c-.364.77-.692 1.578-.947 2.348-.255.808-.474 1.541-.62 2.239-.145.697-.218 1.247-.218 1.65 0 .404.073.698.182.881.11.184.255.33.474.404.218.036.546.073.983.073z" fill="#151515"/></g><mask id="b" style="mask-type:luminance" maskUnits="userSpaceOnUse" x="-243" y="-245" width="701" height="397"><path d="M457.025-244.46h-699.622v396.259h699.622V-244.46z" fill="#fff"/></mask><g mask="url(#b)"><path d="M69.574 9.953L65.31 15.75v3.742h1.312v.88h-5.94v-.88h1.604V6.247h-1.603v-.88h5.94v.88H65.31v8.108l4.264-5.833V6.247h-1.349v-.88h5.976v.88h-1.603v13.245h1.603v.88h-5.976v-.88h1.349v-9.54z" fill="#151515"/></g><mask id="c" style="mask-type:luminance" maskUnits="userSpaceOnUse" x="-243" y="-245" width="701" height="397"><path d="M457.025-244.46h-699.622v396.259h699.622V-244.46z" fill="#fff"/></mask><g mask="url(#c)"><path d="M86.152 12.007h.73l.254-.587c.146-.293.219-.55.328-.77.11-.22.182-.404.219-.514.036-.11.11-.257.182-.404.219-.513.474-1.064.729-1.65a9.993 9.993 0 01.838-1.542c.291-.44.62-.807.984-1.064a2.199 2.199 0 011.275-.403c.62 0 1.166.147 1.713.403-.255.697-.365 1.101-.401 1.211-.037.11-.037.367-.073.697-.036.367-.073.697-.073 1.028h-.4a3.222 3.222 0 01-.62-.294c-.328-.183-.656-.257-1.057-.257-.364 0-.729.147-1.02.44-.292.294-.583.698-.875 1.285-.291.55-.729 1.467-1.275 2.678a9.705 9.705 0 012.733 1.1c.765.478 1.385 1.212 1.895 2.202s.765 2.312.801 3.963h1.166v.917h-5.283v-.917h.765c.036-.55.036-.917.036-1.174 0-.807-.073-1.505-.182-2.092-.11-.587-.291-1.137-.583-1.614a3.84 3.84 0 00-1.13-1.174c-.473-.33-1.056-.55-1.712-.697v6.75h1.203v.918h-5.83v-.917h1.603V6.32h-1.604v-.917h5.94v.917h-1.349v5.687h.073z" fill="#151515"/></g><mask id="d" style="mask-type:luminance" maskUnits="userSpaceOnUse" x="-243" y="-245" width="701" height="397"><path d="M457.025-244.46h-699.622v396.259h699.622V-244.46z" fill="#fff"/></mask><g mask="url(#d)"><path d="M110.165 9.953l-4.263 5.797v3.742h1.312v.88h-5.94v-.88h1.604V6.247h-1.604v-.88h5.94v.88h-1.312v8.108l4.263-5.833V6.247h-1.311v-.88h5.939v.88h-1.603v13.245h1.603v.88h-5.939v-.88h1.311v-9.54z" fill="#151515"/></g><mask id="e" style="mask-type:luminance" maskUnits="userSpaceOnUse" x="-243" y="-245" width="701" height="397"><path d="M457.025-244.46h-699.622v396.259h699.622V-244.46z" fill="#fff"/></mask><g mask="url(#e)"><path d="M131.009 9.953l-4.263 5.797v3.705h1.348v.918h-5.94v-.918h1.604V6.247h-1.604v-.918h5.721v.918h-1.129v8.072l4.263-5.797V6.247h-1.13v-.918h5.758v.918h-1.604v13.208h1.604v.918h-5.94v-.918h1.348V9.953h-.036zm.146-8.696l.838.33a5.749 5.749 0 01-1.348 2.238c-.584.624-1.167.917-1.822.917a2 2 0 01-1.312-.477c-.401-.33-.693-.733-.948-1.284-.255-.513-.4-1.1-.51-1.724l.765-.257c.401 1.174 1.021 1.761 1.859 1.761.619 0 1.093-.147 1.53-.477.474-.257.765-.624.948-1.027z" fill="#151515"/></g><mask id="f" style="mask-type:luminance" maskUnits="userSpaceOnUse" x="-243" y="-245" width="701" height="397"><path d="M457.025-244.46h-699.622v396.259h699.622V-244.46z" fill="#fff"/></mask><g mask="url(#f)"><path d="M56.163 34.645H49.75v-1.54h1.057c0-2.459-.255-4.147-.765-5.1-.51-.955-1.13-1.432-1.895-1.432-.51 0-.984.22-1.421.697-.438.477-.802 1.321-1.093 2.495-.292 1.174-.438 2.715-.438 4.697 0 1.43.073 2.825.219 4.11.146 1.32.364 2.934.656 4.879.364 2.128.546 3.89.546 5.283 0 .147 0 .33-.036.514s-.036.367-.073.587c-.036.184-.073.33-.073.44 0 .11-.036.22-.036.294-.037.073-.037.147-.037.22.146.147.365.22.583.22.583 0 1.203-.44 1.786-1.284.62-.88 1.093-1.981 1.494-3.375.4-1.395.583-2.826.583-4.293v-.88H49.75v-1.542h6.413v1.541h-1.02a12.627 12.627 0 01-.838 4.256c-.51 1.321-1.166 2.459-1.968 3.45-.801.99-1.712 1.76-2.66 2.274-.984.55-1.895.807-2.842.807-.692 0-1.275-.147-1.785-.44v-.514c0-.623-.037-1.21-.073-1.65-.073-.478-.219-1.065-.474-1.835-.255-.734-.692-1.688-1.275-2.825-.693-1.285-1.203-2.422-1.53-3.376-.329-.99-.547-1.835-.657-2.532-.109-.733-.145-1.504-.145-2.385 0-2.274.328-4.292 1.02-5.98.692-1.725 1.603-3.045 2.733-3.963 1.13-.917 2.405-1.357 3.753-1.357 2.295 0 3.935.844 4.92 2.531 1.02 1.688 1.602 3.523 1.821 5.504h1.02v1.504z" fill="#151515"/></g><mask id="g" style="mask-type:luminance" maskUnits="userSpaceOnUse" x="-243" y="-245" width="701" height="397"><path d="M457.025-244.46h-699.622v396.259h699.622V-244.46z" fill="#fff"/></mask><g mask="url(#g)"><path d="M65.091 24.629a.5.5 0 01.4.22c.11.147.329.477.657.99.546.845 1.312 1.909 2.332 3.23 1.056 1.357 1.858 2.715 2.441 4.109.583 1.357.838 3.045.838 5.026 0 1.688-.218 3.193-.62 4.477-.4 1.284-.874 2.311-1.384 3.118-.51.808-1.53 2.312-3.097 4.55-.474.697-.802 1.174-1.02 1.431-.219.257-.438.367-.62.367s-.4-.147-.729-.477a44.776 44.776 0 01-1.785-2.202c-.875-1.137-1.494-1.944-1.822-2.421a16.24 16.24 0 01-1.13-1.945c-.4-.844-.765-1.76-.983-2.825-.256-1.064-.365-2.238-.365-3.559 0-4.22 1.603-8.219 4.81-11.961.474-.55.838-1.027 1.057-1.358.255-.513.62-.77 1.02-.77zm-1.603 4.806c-.583.11-1.093.44-1.53 1.028A6.203 6.203 0 0060.9 32.48a7.68 7.68 0 00-.365 2.348 6.3 6.3 0 00.255 1.798c.146.623.401 1.284.693 1.944a24.36 24.36 0 001.13 2.128c.436.734.983 1.578 1.639 2.532.802 1.174 1.312 2.018 1.567 2.495.255.477.4 1.064.437 1.688.692-.404 1.385-1.1 2.004-2.055.62-.954.984-1.945 1.093-3.009v-1.247a7.875 7.875 0 00-.364-1.541 14.832 14.832 0 00-.692-1.578 20.695 20.695 0 00-.948-1.65c-.364-.588-.765-1.285-1.275-2.092-.437-.734-.802-1.358-1.13-1.835-.291-.513-.546-.917-.728-1.247-.183-.33-.328-.624-.401-.88-.183-.22-.255-.514-.328-.845z" fill="#151515"/></g><mask id="h" style="mask-type:luminance" maskUnits="userSpaceOnUse" x="-243" y="-245" width="701" height="397"><path d="M457.025-244.46h-699.622v396.259h699.622V-244.46z" fill="#fff"/></mask><g mask="url(#h)"><path d="M73.946 25.583h8.746c.765 0 1.275-.037 1.494-.074.218-.036.364-.11.364-.22.036-.11.11-.183.291-.22.183-.037.656-.073 1.422-.073.255 0 .437.146.583.403.145.257.218.624.218 1.027 0 .147-.036.33-.073.514-.036.184-.109.44-.182.77-.073.294-.146.588-.218.808-.22.88-.365 1.724-.438 2.605-.073.88-.11 1.468-.182 1.835-.073.366-.255.55-.547.55-.255 0-.4-.11-.51-.33a9.75 9.75 0 01-.291-1.211c-.255-1.394-.547-2.458-.911-3.156-.365-.697-.729-1.174-1.093-1.357a3.125 3.125 0 00-1.312-.294h-1.53v9.173c.546.77 1.348 1.43 2.404 2.018 1.057.587 2.041.88 2.916.88.145 0 .51-.036 1.02-.073.583 0 .984.147 1.239.44.218.294.364.954.364 1.908v7.118c0 .66-.036 1.138-.073 1.505-.073.33-.182.587-.4.77-.22.184-.547.294-1.057.294H74.02v-1.541h2.04V27.16h-2.04v-1.577h-.074zm5.83 24.032h3.025c.4 0 .692-.147.838-.477.146-.294.219-.954.219-1.981V43.01c0-.55-.037-.954-.146-1.211-.11-.257-.401-.587-.875-.954a52.48 52.48 0 01-1.858-1.614c-.4-.404-.765-.918-1.166-1.578v11.961h-.037z" fill="#151515"/></g><mask id="i" style="mask-type:luminance" maskUnits="userSpaceOnUse" x="-243" y="-245" width="701" height="397"><path d="M457.025-244.46h-699.622v396.259h699.622V-244.46z" fill="#fff"/></mask><g mask="url(#i)"><path d="M96.865 24.629c.146 0 .292.073.401.22.11.147.328.477.656.99.547.845 1.312 1.909 2.332 3.23 1.057 1.357 1.859 2.715 2.442 4.109.583 1.357.838 3.045.838 5.026 0 1.688-.219 3.193-.62 4.477-.401 1.284-.874 2.311-1.384 3.118-.511.808-1.53 2.312-3.098 4.55-.473.697-.801 1.174-1.02 1.431-.219.257-.437.367-.62.367-.182 0-.4-.147-.728-.477a44.776 44.776 0 01-1.786-2.202c-.874-1.137-1.494-1.944-1.822-2.421a16.24 16.24 0 01-1.13-1.945c-.4-.844-.764-1.76-.983-2.825-.255-1.064-.365-2.238-.365-3.559 0-4.22 1.604-8.219 4.81-11.961.474-.55.838-1.027 1.057-1.358.255-.513.62-.77 1.02-.77zm-1.64 4.806c-.582.11-1.093.44-1.53 1.028a6.205 6.205 0 00-1.056 2.018 7.682 7.682 0 00-.365 2.348 6.3 6.3 0 00.255 1.798c.146.623.401 1.284.693 1.944.328.698.692 1.395 1.13 2.128.436.734.983 1.578 1.639 2.532.802 1.174 1.312 2.018 1.567 2.495.255.477.4 1.064.437 1.688.692-.404 1.385-1.1 2.004-2.055.62-.954.984-1.945 1.093-3.009v-1.247a7.895 7.895 0 00-.364-1.541 14.809 14.809 0 00-.692-1.578 20.83 20.83 0 00-.948-1.65c-.364-.588-.765-1.285-1.275-2.092-.437-.734-.802-1.358-1.13-1.835-.291-.513-.546-.917-.729-1.247-.182-.33-.328-.624-.4-.88-.146-.22-.255-.514-.328-.845z" fill="#151515"/></g><mask id="j" style="mask-type:luminance" maskUnits="userSpaceOnUse" x="-243" y="-245" width="701" height="397"><path d="M457.025-244.46h-699.622v396.259h699.622V-244.46z" fill="#fff"/></mask><g mask="url(#j)"><path d="M113.482 49.615h1.603a90.132 90.132 0 01-1.129-5.797 226.902 226.902 0 01-.802-5.247c-.219-1.504-.401-3.008-.583-4.476-.146-1.284-.292-2.275-.401-3.045-.437.77-.911 1.87-1.385 3.302-1.275 3.485-1.894 6.42-1.894 8.806 0 1.137.036 1.944.072 2.458.073.513.11.844.219.99.073.147.182.22.328.22h.146c.182 0 .328.22.437.698.109.477.146 1.504.146 3.082 0 .367-.11.623-.328.77-.146.11-.328.147-.547.147-.182 0-.473-.037-.838-.147-.146-.036-.364-.036-.656-.036-.328 0-.619 0-.765.036-.474 0-.802-.073-.984-.257-.218-.183-.328-.513-.364-1.064v-1.284c.036-.88.109-1.761.255-2.642.146-.88.364-1.907.656-3.082a69.163 69.163 0 011.384-4.402c.438-1.285.839-2.385 1.13-3.266.292-.88.474-1.357.474-1.394.51-1.358.911-2.532 1.239-3.56.328-1.027.51-1.834.51-2.494 0-.404-.073-.624-.219-.734-.146-.11-.328-.147-.619-.147h-1.713v-1.54h8.09v1.54h-1.494c.255 2.972.655 6.274 1.238 9.943a186.31 186.31 0 001.749 10.017c.183.807.328 1.651.474 2.532h1.786v1.54h-7.215v-1.467z" fill="#151515"/></g><mask id="k" style="mask-type:luminance" maskUnits="userSpaceOnUse" x="-243" y="-245" width="701" height="397"><path d="M457.025-244.46h-699.622v396.259h699.622V-244.46z" fill="#fff"/></mask><g mask="url(#k)"><path d="M130.098 25.583v1.54h-2.041v9.027a6.408 6.408 0 001.676 1.614c.693.44 1.348.807 2.041 1.064.656.22 1.202.367 1.603.367.146 0 .51-.037 1.02-.073.547 0 .948.146 1.166.44.219.293.328.954.328 1.908v7.118c0 .77-.073 1.357-.182 1.724s-.255.587-.474.697c-.182.11-.473.147-.874.147H122.19v-1.54h2.041V27.123h-2.041v-1.541h7.908zm-2.041 24.032h2.186c.547 0 .984-.11 1.312-.33.328-.22.51-.807.51-1.688V42.35c0-.623-.073-1.027-.218-1.284-.11-.22-.474-.477-1.057-.734a7.902 7.902 0 01-2.733-2.201v11.484z" fill="#151515"/></g><mask id="l" style="mask-type:luminance" maskUnits="userSpaceOnUse" x="-100" y="-35" width="248" height="141"><path d="M147.968-34.298H-99.124v140.153h247.092V-34.298z" fill="#fff"/></mask><g mask="url(#l)"><path d="M34.486 22.373c-.682-.285-2.02-.986-2.947-2.465-1.068-1.713-1.03-3.569-1.004-4.205.013-.298.026-.272.064-1.064.026-.597.103-1.933.065-2.985a15.358 15.358 0 00-.644-3.958c-.643-2.297-1.248-2.673-1.621-2.79-.18-.052-.348-.052-.67-.052-.849 0-1.428.221-2.239.506-1.866.65-2.78 1.039-3.526 1.493-.348.207-.54.35-.9.467-.696.208-1.133.065-2.227-.039-.695-.065-1.352-.13-2.137-.065-1.21.104-1.364.39-2.097.364-.991-.026-1.48-.597-2.484-1.233-.901-.571-3.166-2.012-4.736-1.44-1.326.492-1.815 2.27-2.368 4.36a17.373 17.373 0 00-.58 4.84c.027 1.402.181 5.087 1.7 9.72 1.35 4.152 3.153 7.098 4.26 8.876a44.618 44.618 0 001.608 2.427 46.972 46.972 0 005.11 6.008s4.71 4.698 10.398 7.877c2.123 1.194 4.388 2.142 4.942 2.31 0 0 .36.104 1.582.545.013 0 .026.013.052.026.051.026.103.052.141.078H.948V.948h33.538v21.425z" fill="#151515"/></g><mask id="m" style="mask-type:luminance" maskUnits="userSpaceOnUse" x="-100" y="-35" width="248" height="141"><path d="M147.968-34.298H-99.124v140.153h247.092V-34.298z" fill="#fff"/></mask><g mask="url(#m)"><path d="M21.578 16.378c.065-.026.142-.039.22-.078.154-.09.462-.208.874-.558 0 0 .72-.61 1.068-.792.013-.013.052-.025.09-.025.09 0 .155.09.18.116.104.143.27.662.04 1.415a2.536 2.536 0 01-.207.519c-.167.324-.437.545-.746.74-.116.077-.27.116-.412.142-.244.04-.489.078-.733.078-.284 0-.515-.169-.747-.324-.026-.013-.038-.026-.09-.065-.039.104-.064.195-.103.285-.09.273-.09.26-.09.273-.103.26-.335.636-.36.675-.013.026-.039.064-.026.116.013.052.064.091.154.156.27.156.54.325.811.493.322.195.644.364.952.571.142.091.258.22.387.338.18.155.347.324.527.48.039.026.052.078.077.104.039.065.103.13.13.207a.849.849 0 01.025.26c-.013.246-.039.48-.039.727-.013.22-.013.44-.013.661v.948c0 .116.052.246.026.363-.026.117-.077.26-.154.325a6.363 6.363 0 01-.67.493c-.308.207-.63.402-.952.584-.335.194-.708.35-1.004.597a4.57 4.57 0 00-.617.61c-.541.622-.567.92-.978 1.09-.142.064-.27.077-.528.13-.386.064-.682.051-.811.051-1.622-.039-1.737.13-2.072-.078-.438-.272-.72-.87-.978-1.323-.142-.247-.309-.416-.515-.636-.077-.091-.231-.104-.334-.182-.4-.26-.798-.506-1.171-.804-.374-.299-.708-.65-1.069-.974-.038-.026-.09-.039-.116-.078-.051-.064-.115-.13-.115-.194.013-.701.025-1.415.051-2.116 0-.051-.013-.103-.013-.155-.013-.22-.038-.441-.013-.65 0-.025.026-.077.194-.259a4.52 4.52 0 01.797-.687c.155-.104.232-.17.374-.247.206-.117.309-.156.72-.35l.386-.195c.232-.117.476-.22.708-.324.052-.026.103-.04.18-.078a4.422 4.422 0 00-.128-.442 12.543 12.543 0 00-.348-.882c-.038-.104-.103-.208-.167-.311-.103.13-.528.636-1.261.74a1.83 1.83 0 01-1.21-.221 1.729 1.729 0 01-.605-.61 2.26 2.26 0 01-.219-.428c-.103-.273-.128-.52-.18-1.026 0 0-.013-.233.064-.57.026-.143.18-.195.31-.117.244.142.476.285.707.428.45.272.914.519 1.351.804.22.143.438.286.695.377.13.052.13.013.116-.091-.064-.377-.154-.74-.193-1.116-.038-.312-.013-.623-.013-.934 0-.247-.025-.494-.013-.74.013-.234.04-.454.052-.688.026-.454.142-.883.309-1.298.116-.298.219-.61.334-.934-.115 0-.283.013-.476.026-.154.013-.386.026-.63.052a5.987 5.987 0 00-.824.143c-.257.051-.991.194-1.75.648-.258.156-.515.299-.76.442-.18.103-.373.194-.54.311l-.888.584c-.232.156-.476.311-.708.493-.322.26-.643.532-.94.818-.205.194-.385.415-.578.636-.09.103-.193.194-.296.285-.04.026-.116-.013-.18-.039-.27-.13-.245-.39-.245-.636 0-.285.013-.57.013-.856.013-.416.013-.83.064-1.246.052-.506.142-1.012.232-1.518.038-.247.064-.493.128-.727.052-.182.09-.247.335-.882.09-.234.167-.416.257-.65.232-.596.232-.622.322-.83.103-.233.245-.467.36-.7.142-.286.296-.559.45-.844a.41.41 0 01.194-.169c.232-.09.45-.052.67.078.128.078.282.117.437.169.051.026.103.052.167.078.309.155.63.298.94.454.334.181.669.363 1.003.558.335.194.682.402 1.004.623.747.532.67.57 1.261.947.953.61 1.146.714 1.146.714.141.078.45.246.592.57.077.17.077.3.064.325-.09.182-.206.35-.283.532-.142.325-.258.65-.296 1.012-.039.442-.142.883-.18 1.324a9.648 9.648 0 00-.026 1.22c.013.376.064.753.129 1.116.077.376.193.753.296 1.129.064.247.128.493.206.74.115.324.244.636.373.947.064 0 .167-.013.296-.013.296-.013.553 0 1.042.013.4.013.605.026.618.026.515.026.798.039 1.338.078.258.013.631.039 1.094.065.09-.156.22-.39.348-.675.257-.532.386-.973.463-1.246.103-.363.167-.636.232-.921a9.1 9.1 0 00.154-.844c.026-.298.039-.597.039-.895 0-.325 0-.649-.039-.974a28.144 28.144 0 00-.232-1.505c-.038-.22-.154-.428-.231-.649-.142-.428-.206-.493-.18-.623.038-.168.154-.26.566-.597.219-.168.425-.35.643-.519.322-.26.631-.519.953-.765.296-.22.605-.428.926-.636.245-.156.515-.286.773-.441.244-.143.501-.286.746-.429.322-.181.656-.35.99-.519.323-.168.631-.337.953-.48.206-.09.425-.156.657-.207.128-.026.205.064.27.168.18.338.373.65.515 1 .18.44.296.908.476 1.35.103.246.103.505.18.752.077.246.116.519.154.778.103.597.078 1.194.065 1.791 0 .156.025.312.025.467.013.545.013 1.09.026 1.636 0 .116.013.246-.013.363-.013.065-.038.13-.103.169-.116.065-.283-.052-.386-.117-.412-.299-.515-.597-.85-.883a5.416 5.416 0 00-.848-.57 12.73 12.73 0 00-.914-.52c-.567-.26-1.146-.506-1.725-.752-.231-.091-.476-.17-.707-.247-.232-.09-.451-.195-.683-.272a2.765 2.765 0 00-.566-.13c-.579-.104-.76-.273-1.004-.169-.064.026-.154.052-.206.143-.115.168 0 .402.039.726.039.286.09.559.142.844.064.376.154.753.206 1.129.025.208.012.428.012.636v.779c0 .168-.025.324-.038.493l-.155.999zm-1.235 9.175c.154-.052.244-.117.437-.22.245-.144.31-.196.631-.403.103-.065.219-.117.309-.195.27-.207.553-.402.81-.623.142-.104.258-.22.258-.441-.013-.337.013-.675.026-1.025.013-.415.013-.83.013-1.233 0-.039-.013-.104-.052-.13-.231-.194-.463-.402-.708-.584a5.883 5.883 0 00-.669-.428 5.453 5.453 0 00-.72-.376c-.207-.091-.425-.156-.644-.247-.142-.065-.244-.156-.412-.143-.232.013-.463-.039-.695-.052l-.926-.038c-.464-.026-.502-.026-.863-.04-.733-.025-1.094-.038-1.428.014-.296.052-.49.13-.824.233a5.25 5.25 0 00-1.158.532c-.309.182-.592.428-.9.61-.335.208-.554.48-.554.883-.013.545-.026 1.09-.026 1.635 0 .168.013.363.154.506.168.155.322.337.49.506.077.078.154.143.231.195l.81.467.773.428c.167.09.335.208.515.273.206.064.437.09.656.103a8.8 8.8 0 00.592.013c.245 0 .502-.026.747-.026.398 0 .81.026 1.21.026.231 0 .476 0 .707-.013a6.39 6.39 0 00.657-.078c.257-.051.386-.077.553-.13zm-.875.83h-1.21c-.283 0-.566.026-.836.04-.811.012-1.197.012-1.339 0a16.104 16.104 0 01-.605-.04c.142.325.31.545.438.688l.167.169c.219.143.438.117.888.09.257-.012.438-.012.656-.012.605 0 .863.025 1.172-.13a.63.63 0 00.141-.091 1.49 1.49 0 00.528-.714z" fill="#151515"/></g><mask id="n" style="mask-type:luminance" maskUnits="userSpaceOnUse" x="-100" y="-35" width="248" height="141"><path d="M147.968-34.298H-99.124v140.153h247.092V-34.298z" fill="#fff"/></mask><g mask="url(#n)"><path d="M15.838 21.699c.09-.065.142-.013.528.025 0 0 .424.026.913.014.078 0 .284-.026.721-.065.515-.052.67-.078.772.026.039.025.065.077.103.428.039.298.052.428.077.83.026.364.039.429.013.571-.025.13-.051.286-.154.455-.103.142-.232.22-.36.311-.22.143-.27.104-.348.208-.116.142-.039.26-.154.415-.078.104-.193.13-.27.156-.232.078-.425.026-.528 0-.142-.04-.27-.078-.373-.195-.13-.143-.052-.247-.168-.415-.103-.143-.193-.13-.399-.286 0 0-.206-.155-.36-.376-.077-.117-.155-.286-.167-1.077 0-.87.077-.974.154-1.025z" fill="#151515"/></g></svg>