<svg width="121" height="120" fill="none" xmlns="http://www.w3.org/2000/svg"><g clip-path="url(#clip0_521_8044)"><path d="M116.872 30.434c-3.15-11.595-15.209-23.656-26.806-26.806C82.956 1.856 73.43.03 60.5 0 47.57.03 38.044 1.856 30.934 3.628 19.339 6.778 7.278 18.837 4.128 30.434 2.356 37.544.53 47.069.5 60c.03 12.93 1.856 22.456 3.628 29.566 3.15 11.597 15.211 23.656 26.806 26.806 7.11 1.772 16.64 3.598 29.566 3.628 12.928-.03 22.456-1.856 29.566-3.628 11.597-3.15 23.656-15.209 26.806-26.806 1.772-7.11 3.598-16.64 3.628-29.566-.03-12.93-1.856-22.456-3.628-29.566z" fill="#FFDFDF"/><path d="M96.896 52.098a6760.651 6760.651 0 01-4.966-4.836 650.143 650.143 0 00-.176-6.74c-.094-3.007-1.392-5.876-3.624-8.107a12.075 12.075 0 00-8.12-3.614c-2.254-.07-4.505-.13-6.755-.176-1.628-1.65-3.24-3.3-4.835-4.952a10.815 10.815 0 00-15.837 0 681.624 681.624 0 01-4.845 4.964c-2.25.043-4.5.101-6.75.173-6.199.211-11.533 5.534-11.744 11.719-.07 2.245-.13 4.492-.176 6.74-1.658 1.62-3.313 3.23-4.966 4.83-2.206 2.145-3.446 4.94-3.446 7.902a10.953 10.953 0 003.446 7.903c1.653 1.598 3.308 3.207 4.966 4.826.047 2.25.105 4.499.176 6.747.093 3.012 1.392 5.874 3.62 8.107a12.084 12.084 0 008.124 3.614c2.253.07 4.505.13 6.755.176a676.942 676.942 0 014.835 4.955 10.828 10.828 0 0015.844 0c1.603-1.649 3.216-3.301 4.84-4.957 2.25-.046 4.5-.103 6.75-.174 6.197-.21 11.533-5.538 11.744-11.718.07-2.246.13-4.492.176-6.739a3541.59 3541.59 0 014.966-4.84 10.972 10.972 0 003.446-7.9c0-2.968-1.24-5.761-3.448-7.903z" fill="url(#paint0_linear_521_8044)"/><g clip-path="url(#clip1_521_8044)"><path d="M80.885 45.193a2.1 2.1 0 00-2.97 0l-25.16 25.16-9.67-9.671a2.1 2.1 0 00-2.97 2.97l11.156 11.155a2.1 2.1 0 002.97 0l26.644-26.644a2.1 2.1 0 000-2.97z" fill="url(#paint1_linear_521_8044)"/></g></g><defs><linearGradient id="paint0_linear_521_8044" x1="88.1" y1="87.603" x2="32.898" y2="32.403" gradientUnits="userSpaceOnUse"><stop stop-color="#EB1E1E"/><stop offset=".54" stop-color="#EB1E68"/><stop offset=".54" stop-color="#EB1E80"/><stop offset="1" stop-color="#FE9292"/></linearGradient><linearGradient id="paint1_linear_521_8044" x1="39.5" y1="45" x2="81.5" y2="75" gradientUnits="userSpaceOnUse"><stop stop-color="#fff"/><stop offset=".515" stop-color="#fff"/><stop offset="1" stop-color="#BCE4ED"/></linearGradient><clipPath id="clip0_521_8044"><path fill="#fff" transform="translate(.5)" d="M0 0h120v120H0z"/></clipPath><clipPath id="clip1_521_8044"><path fill="#fff" transform="translate(39.5 39)" d="M0 0h42v42H0z"/></clipPath></defs></svg>