<svg width="32" height="32" fill="none" xmlns="http://www.w3.org/2000/svg"><circle cx="16" cy="16" r="16" fill="#FF9330"/><path d="M15.42 19.4c-1.366-.142-2.596-.478-3.65-1.302-.13-.102-.265-.201-.385-.316-.461-.443-.507-.95-.143-1.473.313-.447.837-.567 1.381-.31.106.05.206.112.303.179 1.963 1.349 4.66 1.386 6.631.06a1.81 1.81 0 01.646-.334c.47-.12.91.052 1.162.464.288.47.284.929-.071 1.294-.545.559-1.2.964-1.929 1.246-.689.267-1.443.402-2.19.49.113.123.166.184.237.255 1.014 1.018 2.032 2.032 3.042 3.054.344.348.416.78.227 1.185-.208.442-.672.733-1.126.702-.288-.02-.513-.163-.713-.364-.765-.77-1.544-1.526-2.294-2.31-.218-.228-.323-.185-.515.013-.77.792-1.552 1.572-2.339 2.348-.353.348-.774.411-1.183.212-.436-.211-.713-.655-.692-1.102.015-.302.164-.533.371-.74 1.003-1.002 2.004-2.006 3.005-3.01.066-.067.128-.137.224-.24z" fill="#fff"/><path d="M16.25 15.911c-2.435-.008-4.431-2.027-4.417-4.465A4.463 4.463 0 0116.303 7c2.464.007 4.442 2.022 4.43 4.513-.013 2.434-2.023 4.407-4.483 4.398zm2.213-4.46a2.17 2.17 0 00-2.177-2.175 2.173 2.173 0 00-2.182 2.202 2.17 2.17 0 002.193 2.159 2.166 2.166 0 002.166-2.185z" fill="#fff"/></svg>