<svg width="1200" height="355" fill="none" xmlns="http://www.w3.org/2000/svg"><g clip-path="url(#clip0_483_2864)" stroke-width="60"><path d="M1439.81-118.79c-67.12 59.218-217.03 145.89-335.61 296.088-118.583 150.199-218.367 318.03-257.294 454.906-38.926 136.875 85.728 161.811 62.66 229.472-23.067 67.661-142.397 87.066-177.996 108.833" stroke="url(#paint0_linear_483_2864)"/><path d="M340.007-264.272c-41.094 79.52-88.66 246.022-205.47 397.603-116.81 151.581-255.298 289.222-378.578 360.301-123.28 71.079-177.813-43.754-237.822-4.908-60.01 38.846-49.779 159.31-62.224 199.138" stroke="url(#paint1_linear_483_2864)"/></g><defs><linearGradient id="paint0_linear_483_2864" x1="728.905" y1="821.815" x2="487.874" y2="387.701" gradientUnits="userSpaceOnUse"><stop stop-color="#FC5959"/><stop offset="1" stop-color="#FC5959" stop-opacity=".1"/></linearGradient><linearGradient id="paint1_linear_483_2864" x1="-399.218" y1="654.246" x2="80.514" y2="782.334" gradientUnits="userSpaceOnUse"><stop stop-color="#FC5959"/><stop offset="1" stop-color="#FC5959" stop-opacity=".1"/></linearGradient><clipPath id="clip0_483_2864"><rect width="1200" height="355" rx="16" fill="#fff"/></clipPath></defs></svg>