<svg width="1600" height="420" fill="none" xmlns="http://www.w3.org/2000/svg"><g clip-path="url(#clip0_416_5240)" stroke-width="93"><path d="M424.533-304.566C384.35-224.439 340.02-55.37 223.616 96.07 107.212 247.511-32.028 383.933-157.486 452.637c-125.458 68.704-185.242-50.842-246.187-13.045-60.945 37.796-46.83 161.622-58.537 202.028" stroke="url(#paint0_linear_416_5240)"/><path d="M1854.65-99.55c-69.75 55.813-223.33 135.028-348.72 279.066-125.4 144.038-232.9 306.553-278.25 441.126-45.36 134.572 77.7 165.397 51.47 231.736-26.24 66.34-146.11 79.969-182.64 99.961" stroke="url(#paint1_linear_416_5240)"/></g><defs><linearGradient id="paint0_linear_416_5240" x1="-313.319" y1="612.044" x2="192.704" y2="735.015" gradientUnits="userSpaceOnUse"><stop stop-color="#FC5959"/><stop offset="1" stop-color="#FC5959" stop-opacity=".1"/></linearGradient><linearGradient id="paint1_linear_416_5240" x1="1100.97" y1="803.994" x2="881.505" y2="359.729" gradientUnits="userSpaceOnUse"><stop stop-color="#FC5959"/><stop offset="1" stop-color="#FC5959" stop-opacity=".1"/></linearGradient><clipPath id="clip0_416_5240"><rect width="1600" height="420" rx="16" fill="#fff"/></clipPath></defs></svg>