<svg width="32" height="32" fill="none" xmlns="http://www.w3.org/2000/svg"><circle cx="16" cy="16" r="16" fill="#00D5F2"/><path d="M17.931 13.778c.46-.557.917-1.857-1-.278a333.937 333.937 0 01-5.408 4.414 1.928 1.928 0 01-.878.241 1.907 1.907 0 01-.886-.195c-1.15-.418-2.493-.975-2.493-.975s-.917-.698.653-1.44c0 0 6.634-3.3 8.935-4.461.882-.465 3.873-1.951 3.873-1.951s1.381-.651 1.266.929c-.038.65-.345 2.928-.651 5.39-.461 3.484-.96 7.294-.96 7.294s-.076 1.068-.728 1.254c-.698-.014-1.372-.308-1.917-.836-.153-.14-2.876-2.23-3.874-3.252a.849.849 0 01-.24-.329 1.037 1.037 0 01.023-.848.82.82 0 01.256-.31 157.222 157.222 0 004.03-4.647z" fill="#fff"/></svg>