<svg width="81" height="80" fill="none" xmlns="http://www.w3.org/2000/svg"><circle cx="40.5" cy="40" r="40" fill="#D3FAFF"/><g clip-path="url(#clip0_382_2728)" fill="#33EAF6"><path d="M31.785 27.812a.938.938 0 100 1.876.938.938 0 000-1.876zm8.437 17.53H37.41V42.53a.938.938 0 00-1.875 0v2.812h-2.812a.938.938 0 000 1.875h2.812v2.813a.938.938 0 001.875 0v-2.813h2.812a.938.938 0 000-1.875z"/><path d="M65.524 46.186a7.495 7.495 0 00-10.245-2.745l-3.808 2.198V37.5a4.721 4.721 0 00-.937-2.813l-4.687-6.25v-2.66a2.817 2.817 0 001.874-2.651v-4.313A2.816 2.816 0 0044.91 16H28.035a2.816 2.816 0 00-2.813 2.812v4.313c0 1.222.784 2.264 1.875 2.65v2.662l-4.687 6.25a4.72 4.72 0 00-.937 2.812v18.155a4.692 4.692 0 004.687 4.688h15.066a7.492 7.492 0 0010.187 2.65l11.366-6.562c3.558-2.054 4.827-6.635 2.745-10.244zM27.097 18.812c0-.517.42-.937.938-.937h16.874c.517 0 .937.42.937.937v4.313c0 .517-.42.937-.937.937H28.035a.938.938 0 01-.938-.937v-4.313zm-3.187 17l4.875-6.5a.937.937 0 00.187-.563v-2.812h15v1.875h-8.438a.938.938 0 000 1.875h8.906l4.593 6.124c.3.4.487.88.543 1.376H23.367c.057-.496.243-.975.543-1.376zm2.25 22.655a2.815 2.815 0 01-2.812-2.813v-.947H40.38a7.512 7.512 0 00.045 3.76H26.16zm14.955-5.625H23.348v-13.78h26.248v7.66l-5.683 3.281a7.444 7.444 0 00-2.798 2.839zm9.36 8.527a5.622 5.622 0 01-7.682-2.057 5.624 5.624 0 012.058-7.685l5.088-2.938 5.625 9.742-5.088 2.938zm11.366-6.562l-4.653 2.687-5.625-9.743 4.654-2.686a5.622 5.622 0 017.683 2.058 5.629 5.629 0 01-2.059 7.684z"/></g><defs><clipPath id="clip0_382_2728"><path fill="#fff" transform="translate(20 16)" d="M0 0h48v48H0z"/></clipPath></defs></svg>