<svg width="81" height="80" fill="none" xmlns="http://www.w3.org/2000/svg"><circle cx="40.5" cy="40" r="40" fill="#D3FFEA"/><path fill-rule="evenodd" clip-rule="evenodd" d="M35.088 53.142a11.12 11.12 0 01-1.33-.758 10.968 10.968 0 01-7.332 2.797c-6.078 0-11.012-4.934-11.012-11.012 0-4.19 2.345-7.836 5.795-9.698a12.295 12.295 0 01-1.001-4.875c0-6.819 5.536-12.354 12.354-12.354.523 0 1.039.032 1.544.096a9.095 9.095 0 0116.171.912c5.489.52 9.788 5.147 9.788 10.77 0 1.068-.155 2.1-.444 3.073 4.12 2.004 6.964 6.231 6.964 11.117 0 6.819-5.536 12.355-12.355 12.355-2.736 0-5.267-.892-7.315-2.4.272 1.687.54 3.237.799 4.57.35 1.806.889 3.645.966 3.905l1.586 2.007a2.175 2.175 0 01-1.706 3.521H33.439a2.174 2.174 0 01-1.706-3.52l1.589-2.012c.059-.178.36-1.1.545-1.906.382-1.657.797-3.955 1.22-6.588zM38.8 42.685l-9.155-3.95 8.777 6.727c-1.16 8.361-2.456 16.332-3.31 17.414l-1.674 2.119H48.56l-1.673-2.12c-1.228-1.555-3.373-17.364-4.706-28.09l7.108-5.449-7.387 3.188c-.547-4.485-.902-7.633-.902-7.633s-.98 8.704-2.2 17.794zm7.577 7.002a10.162 10.162 0 007.853 3.704c5.619 0 10.18-4.562 10.18-10.18 0-4.755-3.266-8.753-7.675-9.87a8.608 8.608 0 001.155-4.32c0-4.773-3.874-8.647-8.646-8.647-.18 0-.36.005-.537.016a6.928 6.928 0 00-6.75-5.385 6.928 6.928 0 00-6.59 4.802 10.18 10.18 0 00-2.806-.392c-5.619 0-10.18 4.562-10.18 10.181a10.13 10.13 0 001.947 5.985c-3.868.944-6.741 4.433-6.741 8.588 0 4.878 3.96 8.838 8.838 8.838 2.92 0 5.51-1.418 7.12-3.602a8.868 8.868 0 001.896 1.467c.219-1.432.438-2.932.652-4.456l-7.77-5.956a2.173 2.173 0 012.182-3.72l6.516 2.81a986.888 986.888 0 001.818-14.902 2.173 2.173 0 014.32 0s.207 1.848.551 4.728l4.716-2.036a2.173 2.173 0 012.184 3.72l-6.12 4.692c.549 4.365 1.213 9.41 1.887 13.935z" fill="#37F633"/></svg>