<svg width="81" height="80" fill="none" xmlns="http://www.w3.org/2000/svg"><circle cx="40.5" cy="40" r="40" fill="#FEFFD3"/><g clip-path="url(#clip0_382_2737)" fill="#FFC700"><path d="M25 43.024a2.385 2.385 0 00-1.6-.624h-4a2.4 2.4 0 00-2.4 2.4v16.8a2.4 2.4 0 002.4 2.4h4a2.388 2.388 0 001.776-.8H45.24a6.393 6.393 0 003.328-.933l14.992-9.126a2.984 2.984 0 00.842-4.355 3.004 3.004 0 00-3.34-1.045l-2.462.819V38.4H61a.8.8 0 00.678-1.224l-4.408-7.048a.8.8 0 00-1.114-.273.8.8 0 00-.246 1.121l3.65 5.824H37.443L30.44 25.6H42.6a.8.8 0 100-1.6H29a.8.8 0 00-.674.378h-.004l-8 12.8A.8.8 0 0021 38.4h4v4.624zM23.4 62.4h-4a.8.8 0 01-.8-.8V44.8a.8.8 0 01.8-.8h4a.8.8 0 01.8.8v16.8a.8.8 0 01-.8.8zm38.16-13.144a1.4 1.4 0 011.52.44.9.9 0 00.038.057 1.383 1.383 0 01-.392 2.02L47.736 60.9a4.8 4.8 0 01-2.496.699H25.8v-16h1.44a6.523 6.523 0 014.062 1.425A8.133 8.133 0 0036.36 48.8h4.184a3.177 3.177 0 012.925 1.912 2.044 2.044 0 01-.221 2.088h-4.872a8.018 8.018 0 00-4.438 1.344l-.584.392a.8.8 0 10.892 1.328l.58-.389a6.408 6.408 0 013.55-1.075h7.112c.432 0 .86-.07 1.269-.209l14.803-4.935zM57 49.09l-10.755 3.585c-.244.083-.5.125-.757.125h-.436a3.71 3.71 0 00-.103-2.7 4.756 4.756 0 00-3.149-2.723V38.4H57v10.69zM37 38.4h3.2v8.8h-3.84a6.523 6.523 0 01-4.062-1.425A8.133 8.133 0 0027.24 44h-.64v-6.17l4.8-7.68 4.922 7.874A.8.8 0 0037 38.4zm-8-12.09l1.457 2.33-5.1 8.16H22.44L29 26.31z"/><path d="M52.992 16a.8.8 0 00-.8.777v.023c0 .294-.072 7.2-6.408 7.2a.8.8 0 100 1.6c6.31 0 6.407 6.907 6.408 7.2a.8.8 0 101.6.022V32.8c0-.294.073-7.2 6.408-7.2a.8.8 0 000-1.6c-6.31 0-6.407-6.907-6.408-7.2a.8.8 0 00-.8-.8zm3.561 8.8a7.6 7.6 0 00-3.56 4.029 7.6 7.6 0 00-3.561-4.029 7.6 7.6 0 003.56-4.029 7.6 7.6 0 003.561 4.029zM54.6 41.6a.8.8 0 00-.8.8v4.223l-4.253 1.418a.8.8 0 10.505 1.52l4.8-1.6a.8.8 0 00.548-.761v-4.8a.8.8 0 00-.8-.8z"/></g><defs><clipPath id="clip0_382_2737"><path fill="#fff" transform="translate(17 16)" d="M0 0h48v48H0z"/></clipPath></defs></svg>