<svg width="81" height="80" fill="none" xmlns="http://www.w3.org/2000/svg"><circle cx="40.5" cy="40" r="40" fill="#FFE7E7"/><path fill-rule="evenodd" clip-rule="evenodd" d="M64.913 39.687a2.174 2.174 0 00-3.938-1.272l-3.59 4.979-.732-1.11a2.174 2.174 0 00-3.99 1.197v8.439a2.44 2.44 0 01-.757 1.767L50.81 54.73a2.176 2.176 0 001.498 3.75h12.96a2.174 2.174 0 001.5-3.75l-1.097-1.043a2.437 2.437 0 01-.758-1.767V39.687zm-32.426-6.593L25.815 30.1a1.089 1.089 0 00-.686-.069l-8.325 1.885a1.088 1.088 0 00.48 2.121l7.972-1.805 10.471 4.702-4.485 3.15-8.698.402-6.425-4.362a1.088 1.088 0 00-1.221 1.799l5.092 3.457-3.152 1.846a1.087 1.087 0 001.099 1.876l4.16-2.434c.061.008.123.01.186.007l5.641-.261-12.553 8.816c-2.09 1.468-2.524 3.968-1.527 5.554l.007.01c.998 1.587 3.44 2.277 5.667 1.029l18.818-10.55 1.606 2.285-2.888 1.748c-.13.078-.242.183-.328.306l-1.867 2.668a1.088 1.088 0 001.781 1.247l1.736-2.48 2.82-1.706 1.564 2.224c.26.37.723.54 1.16.428l4.784-1.235a1.087 1.087 0 10-.542-2.105l-4.056 1.046-3.864-5.495 14.414-8.08a2.175 2.175 0 00-.66-4.034l-3.94-.743 1.404-2.387a2.175 2.175 0 00-3.124-2.882L37.797 35.48l-3.157-1.42.144-5.929a1.086 1.086 0 00-.34-.816l-5.813-5.498a1.089 1.089 0 00-1.833.82c.008.288.13.561.34.76l5.46 5.165-.11 4.531zm30.252 6.593l-5.434 7.536-2.467-3.742v8.439a4.613 4.613 0 01-1.433 3.342l-1.097 1.043h12.96l-1.095-1.043a4.615 4.615 0 01-1.434-3.342V39.687zM16.62 53.009c-1.008.708-1.417 1.85-.935 2.616l.007.011c.481.765 1.689.892 2.763.289l35.138-19.7-6.977-1.316 2.969-5.052L16.62 53.008zM66.108 31.03l-3.603 1.742a1.088 1.088 0 00.946 1.958l3.604-1.742a1.088 1.088 0 00-.947-1.958zm-4.807-5.25l-2.324 3.257a1.088 1.088 0 001.77 1.263l2.324-3.259a1.088 1.088 0 00-1.77-1.262zm-6.92-1.83l-.473 3.974a1.087 1.087 0 002.16.257l.472-3.973a1.087 1.087 0 00-2.159-.258z" fill="#FC5959"/></svg>