<svg width="32" height="32" fill="none" xmlns="http://www.w3.org/2000/svg"><circle cx="16" cy="16" r="16" fill="#0090E1"/><path d="M24.83 19.92c-.05-.08-.366-.713-1.886-2.014-1.592-1.363-1.378-1.142.539-3.498 1.167-1.435 1.634-2.311 1.488-2.686-.14-.357-.998-.263-.998-.263l-2.855.015s-.211-.026-.37.06c-.152.086-.25.283-.25.283s-.453 1.111-1.057 2.055c-1.271 1.993-1.781 2.098-1.989 1.974-.483-.288-.362-1.159-.362-1.776 0-1.932.317-2.737-.619-2.945-.31-.069-.539-.115-1.333-.123-1.02-.01-1.883.004-2.37.224-.326.147-.577.474-.424.493.19.023.617.106.844.39.293.368.282 1.194.282 1.194s.169 2.273-.393 2.555c-.386.194-.914-.201-2.049-2.01-.58-.925-1.02-1.95-1.02-1.95s-.084-.19-.235-.292a1.241 1.241 0 00-.44-.163l-2.714.015s-.407.011-.557.174c-.133.146-.01.446-.01.446s2.125 4.587 4.531 6.9c2.208 2.119 4.714 1.98 4.714 1.98h1.135s.343-.035.518-.21c.161-.16.155-.46.155-.46s-.022-1.405.686-1.612c.697-.204 1.592 1.358 2.541 1.96.717.454 1.262.355 1.262.355l2.538-.033s1.328-.076.699-1.039z" fill="#fff"/></svg>