<svg width="32" height="32" fill="none" xmlns="http://www.w3.org/2000/svg"><circle cx="16" cy="16" r="16" fill="#00DB23"/><path d="M16.26 6c-4.831 0-8.744 3.962-8.744 8.855 0 1.971.637 3.792 1.712 5.264L7 25l.582-.273 4.488-2.098a8.61 8.61 0 004.186 1.08c4.827 0 8.744-3.962 8.744-8.854C25.004 9.962 21.087 6 16.26 6zm4.663 12.635c-.05.245-.156.479-.309.685a1.717 1.717 0 01-1.595.689 5.822 5.822 0 01-2.313-.792c-.817-.491-1.916-1.255-2.744-2.347-.884-1.05-1.365-2.277-1.67-3.19a6.072 6.072 0 01-.28-2.455 1.76 1.76 0 01.308-.855c.172-.25.41-.451.692-.582.23-.11.48-.162.727-.162.352 0 .781-.004 1.079.21.46.328.656.977.656 1.547a2.1 2.1 0 01-.008.159c-.027.312-.054.585-.23.835-.172.25-.489.467-.77.601.215 1.172.586 2.043 1.098 2.605.22.309.516.602.895.875.38.273.837.522 1.38.752.188-.25.465-.518.743-.637.273-.119.547-.091.852-.052.05.008.105.016.156.028.547.119 1.134.447 1.357.974.14.34.05.764-.024 1.112z" fill="#fff"/></svg>