<svg width="32" height="32" fill="none" xmlns="http://www.w3.org/2000/svg"><circle cx="16" cy="16" r="16" fill="#E00000"/><path d="M24.24 10.875c-.644-.755-1.836-1.063-4.11-1.063h-8.26c-2.327 0-3.538.328-4.18 1.131-.628.784-.628 1.938-.628 3.535v3.044c0 3.094.744 4.666 4.809 4.666h8.258c1.973 0 3.066-.272 3.774-.938.725-.683 1.035-1.798 1.035-3.728v-3.044c0-1.684-.049-2.845-.697-3.603zm-5.702 5.545l-3.75 1.928a.584.584 0 01-.566-.017.566.566 0 01-.278-.485v-3.844c0-.198.105-.382.278-.485a.585.585 0 01.565-.018l3.75 1.915a.563.563 0 01.001 1.006z" fill="#fff"/></svg>